<?xml version="1.0" encoding="utf-8"?>
<!-- Generator: Adobe Illustrator 21.0.0, SVG Export Plug-In . SVG Version: 6.00 Build 0)  -->
<svg version="1.1" id="Layer_1" xmlns="http://www.w3.org/2000/svg" xmlns:xlink="http://www.w3.org/1999/xlink" x="0px" y="0px"
	 viewBox="0 0 145.714 8.7" style="enable-background:new 0 0 145.714 8.7;" xml:space="preserve">
<g>
	<path d="M0,0.132h2.196v3.432h3.396V0.132h2.196v8.413H5.592V5.316H2.196v3.229H0V0.132z"/>
	<path d="M11.82,0.132h6.636v1.752h-4.44v1.572h4.008v1.74l-4.008,0.012v1.584h4.56v1.752H11.82V0.132z"/>
	<path d="M22.319,0.132h2.196v6.54h3.564v1.873h-5.76V0.132z"/>
	<path d="M31.476,0.132h6.636v1.752h-4.44v1.572h4.008v1.74l-4.008,0.012v1.584h4.56v1.752h-6.756V0.132z"/>
	<path d="M47.723,0.132h2.04v8.413h-1.92l-3.816-5.028v5.028h-2.052V0.132h1.932l3.828,5.064L47.723,0.132z"/>
	<path d="M58.871,0.132h2.196v6.54h3.564v1.873h-5.76V0.132z"/>
	<path d="M74.243,8.544l-0.576-1.488h-3.636l-0.588,1.488h-2.256l3.612-8.413h2.256l3.528,8.413H74.243z M70.69,5.376h2.328
		l-1.152-3L70.69,5.376z"/>
	<path d="M89.387,0.132h2.256l-2.844,8.413h-2.257L84.947,2.82l-1.62,5.725h-2.256l-2.832-8.413h2.363l1.656,6.144l1.656-6.144
		h2.148l1.68,6.144L89.387,0.132z"/>
	<path d="M99.887,8.544l-1.225-2.329h-0.048h-1.584v2.329h-2.196V0.132h3.78c1.112,0,1.974,0.258,2.586,0.774
		c0.612,0.516,0.918,1.242,0.918,2.178c0,0.632-0.128,1.178-0.384,1.638s-0.629,0.818-1.116,1.074l1.752,2.749H99.887z
		 M97.031,4.464h1.596c0.448,0,0.794-0.112,1.038-0.336c0.244-0.224,0.366-0.548,0.366-0.972c0-0.408-0.122-0.722-0.366-0.942
		c-0.244-0.22-0.59-0.33-1.038-0.33h-1.596V4.464z"/>
	<path d="M105.922,0.132h6.637v1.752h-4.44v1.572h4.008v1.74l-4.008,0.012v1.584h4.56v1.752h-6.756V0.132z"/>
	<path d="M122.17,0.132h2.04v8.413h-1.92l-3.815-5.028v5.028h-2.053V0.132h1.932l3.828,5.064L122.17,0.132z"/>
	<path d="M133.367,2.166c-0.376-0.204-0.749-0.306-1.116-0.306c-0.424,0-0.811,0.106-1.158,0.318
		c-0.348,0.212-0.622,0.504-0.822,0.876c-0.199,0.372-0.299,0.786-0.299,1.242s0.1,0.87,0.299,1.242
		c0.2,0.372,0.475,0.664,0.822,0.876s0.734,0.318,1.158,0.318c0.344,0,0.704-0.088,1.08-0.264c0.376-0.176,0.712-0.416,1.008-0.72
		l1.284,1.38c-0.456,0.479-0.998,0.861-1.626,1.146c-0.629,0.284-1.25,0.426-1.866,0.426c-0.832,0-1.584-0.192-2.256-0.575
		c-0.672-0.385-1.2-0.908-1.584-1.573c-0.384-0.664-0.576-1.408-0.576-2.232c0-0.816,0.196-1.552,0.588-2.208
		c0.392-0.656,0.931-1.172,1.614-1.548S131.366,0,132.214,0c0.624,0,1.24,0.13,1.849,0.39c0.607,0.26,1.123,0.614,1.547,1.062
		l-1.271,1.536C134.067,2.644,133.743,2.37,133.367,2.166z"/>
	<path d="M138.958,0.132h6.636v1.752h-4.439v1.572h4.008v1.74l-4.008,0.012v1.584h4.56v1.752h-6.756V0.132z"/>
</g>
</svg>
